<?xml version="1.0" encoding="utf-8"?>
<!-- Generator: Adobe Illustrator 21.0.0, SVG Export Plug-In . SVG Version: 6.00 Build 0)  -->
<svg version="1.1" id="Слой_1" xmlns="http://www.w3.org/2000/svg" xmlns:xlink="http://www.w3.org/1999/xlink" x="0px" y="0px"
	 viewBox="0 0 191.8 173.9" style="enable-background:new 0 0 191.8 173.9;" xml:space="preserve">
<style type="text/css">
	.st0{clip-path:url(#SVGID_2_);fill-rule:evenodd;clip-rule:evenodd;fill:#FFFFFF;}
	.st1{clip-path:url(#SVGID_2_);fill:none;stroke:#852415;stroke-width:0.216;stroke-miterlimit:22.926;}
	.st2{clip-path:url(#SVGID_2_);fill:none;stroke:#852415;stroke-width:1.417;stroke-miterlimit:22.926;}
	.st3{clip-path:url(#SVGID_2_);fill:none;stroke:#FFFFFF;stroke-width:0.567;stroke-miterlimit:22.926;}
	.st4{clip-path:url(#SVGID_2_);fill:none;stroke:#FFFFFF;stroke-width:0.907;stroke-miterlimit:22.926;}
	.st5{clip-path:url(#SVGID_2_);fill-rule:evenodd;clip-rule:evenodd;fill:#BE2E21;}
	.st6{clip-path:url(#SVGID_2_);fill:none;stroke:#852415;stroke-width:0.567;stroke-miterlimit:22.926;}
</style>
<g>
	<defs>
		<rect id="SVGID_1_" x="0" y="0" width="191.8" height="173.9"/>
	</defs>
	<clipPath id="SVGID_2_">
		<use xlink:href="#SVGID_1_"  style="overflow:visible;"/>
	</clipPath>
	<path class="st0" d="M29.7,26.9h17.2V13L95.1,0.1L146.9,14v13.1h13.5l0.2,0.5l4.3,0v65.6h-38.1c-1.1-10-1.2-30.3-6.4-41.5
		c-3.4-7.4-9-14.4-17.6-17.1c-9.2-2.8-21.5-0.8-26.8,6.5c-2.6,3.6-4.1,8.4-4.9,14.2c-1.5,10.5-2.6,25-3.3,35.6
		C67.8,92,67.8,92,66.5,92l-4.5,0l0,0.6l-33.2,0.5L29.7,26.9z"/>
	<path class="st1" d="M29.7,26.9h17.2V13L95.1,0.1L146.9,14v13.1h13.5l0.2,0.5l4.3,0v65.6h-38.1c-1.1-10-1.2-30.3-6.4-41.5
		c-3.4-7.4-9-14.4-17.6-17.1c-9.2-2.8-21.5-0.8-26.8,6.5c-2.6,3.6-4.1,8.4-4.9,14.2c-1.5,10.5-2.6,25-3.3,35.6
		C67.8,92,67.8,92,66.5,92l-4.5,0l0,0.6l-33.2,0.5L29.7,26.9z"/>
	<path class="st2" d="M46.9,16.5L93.4,4L144,17.6c0,2.8-1.1,8.5,1.7,8.5h4"/>
	<line class="st2" x1="160.6" y1="25.6" x2="160.6" y2="94"/>
	<path class="st0" d="M24.7,126h151.8c0.2,0,0.3,0.2,0.3,0.3v1c0,0.2-0.2,0.3-0.3,0.3H24.7c-0.2,0-0.3-0.2-0.3-0.3v-1
		C24.3,126.1,24.5,126,24.7,126"/>
	<path class="st3" d="M24.7,126h151.8c0.2,0,0.3,0.2,0.3,0.3v1c0,0.2-0.2,0.3-0.3,0.3H24.7c-0.2,0-0.3-0.2-0.3-0.3v-1
		C24.3,126.1,24.5,126,24.7,126z"/>
	<path class="st0" d="M20.4,131.4h151.4c0.3,0,0.6,0.3,0.6,0.6v0.6c0,0.3-0.3,0.6-0.6,0.6H20.4c-0.3,0-0.6-0.3-0.6-0.6v-0.6
		C19.8,131.6,20.1,131.4,20.4,131.4"/>
	<path class="st3" d="M20.4,131.4h151.4c0.3,0,0.6,0.3,0.6,0.6v0.6c0,0.3-0.3,0.6-0.6,0.6H20.4c-0.3,0-0.6-0.3-0.6-0.6v-0.6
		C19.8,131.6,20.1,131.4,20.4,131.4z"/>
	<path class="st0" d="M20.4,137.3h151.4c0.3,0,0.6,0.3,0.6,0.6v0.6c0,0.3-0.3,0.6-0.6,0.6H20.4c-0.3,0-0.6-0.3-0.6-0.6v-0.6
		C19.8,137.5,20.1,137.3,20.4,137.3"/>
	<path class="st3" d="M20.4,137.3h151.4c0.3,0,0.6,0.3,0.6,0.6v0.6c0,0.3-0.3,0.6-0.6,0.6H20.4c-0.3,0-0.6-0.3-0.6-0.6v-0.6
		C19.8,137.5,20.1,137.3,20.4,137.3z"/>
	<path class="st0" d="M24.8,143.4h151.5c0.3,0,0.5,0.2,0.5,0.5v0.7c0,0.3-0.2,0.5-0.5,0.5H24.8c-0.3,0-0.5-0.2-0.5-0.5v-0.7
		C24.3,143.6,24.6,143.4,24.8,143.4"/>
	<path class="st3" d="M24.8,143.4h151.5c0.3,0,0.5,0.2,0.5,0.5v0.7c0,0.3-0.2,0.5-0.5,0.5H24.8c-0.3,0-0.5-0.2-0.5-0.5v-0.7
		C24.3,143.6,24.6,143.4,24.8,143.4z"/>
	<path class="st4" d="M22.8,126.5c-3.7,0.8-6.5,4.6-6.6,9.1c-0.1,4.5,2.6,8.4,6.3,9.3"/>
	<path class="st4" d="M22.7,126.6c-4.8,0.8-8.2,4.4-8.3,9.1c-0.1,4.7,3.4,8.4,8.2,9.4"/>
	<path class="st0" d="M19.9,127.4l0.2-0.1L21,127l0.6-0.1l0,0.1l-0.3,0.1l-0.7,0.4l-0.5,0.3l-0.6,0.4l-0.5,0.5l-0.4,0.5l-0.3,0.3
		l-0.4,0.6l-0.3,0.4l-0.3,0.5l-0.2,0.5l-0.2,0.6l-0.1,0.4l-0.2,0.6l-0.1,0.5l-0.1,0.7l-0.1,0.6l0,0.7l0,0.6l0,0.6l0.1,0.6l0.1,0.7
		l0.1,0.5l0.2,0.6l0.2,0.6l0.3,0.6l0.3,0.6l0.3,0.5l0.9,1.1l0.4,0.4l0.5,0.5l0.5,0.4l0.4,0.3l0.8,0.4l0,0.1l-0.6-0.2l-0.6-0.3
		l-1.2-0.6c-0.2-0.2-0.4-0.2-0.6-0.4c-0.4-0.3-0.7-0.5-1-0.8c-0.2-0.2-0.5-0.4-0.8-0.8l-0.1-0.2l-0.6-0.8c-0.1-0.2-0.3-0.4-0.4-0.6
		c-0.3-0.5-0.5-1-0.7-1.6c-0.1-0.3-0.2-0.7-0.3-1.2c-0.1-0.4-0.1-0.8-0.1-1.2c0-0.2,0-0.5,0-0.7c0-0.3,0-0.5,0.1-0.8
		c0.1-0.5,0.2-0.9,0.4-1.6c0.2-0.5,0.5-1.3,1-2c0.3-0.5,0.7-0.9,1.1-1.3c0.2-0.2,0.3-0.3,0.5-0.5c0.1-0.1,0.3-0.3,0.4-0.3l0.9-0.6
		L19.9,127.4z"/>
	<path class="st4" d="M19.9,127.4l0.2-0.1L21,127l0.6-0.1l0,0.1l-0.3,0.1l-0.7,0.4l-0.5,0.3l-0.6,0.4l-0.5,0.5l-0.4,0.5l-0.3,0.3
		l-0.4,0.6l-0.3,0.4l-0.3,0.5l-0.2,0.5l-0.2,0.6l-0.1,0.4l-0.2,0.6l-0.1,0.5l-0.1,0.7l-0.1,0.6l0,0.7l0,0.6l0,0.6l0.1,0.6l0.1,0.7
		l0.1,0.5l0.2,0.6l0.2,0.6l0.3,0.6l0.3,0.6l0.3,0.5l0.9,1.1l0.4,0.4l0.5,0.5l0.5,0.4l0.4,0.3l0.8,0.4l0,0.1l-0.6-0.2l-0.6-0.3
		l-1.2-0.6c-0.2-0.2-0.4-0.2-0.6-0.4c-0.4-0.3-0.7-0.5-1-0.8c-0.2-0.2-0.5-0.4-0.8-0.8l-0.1-0.2l-0.6-0.8c-0.1-0.2-0.3-0.4-0.4-0.6
		c-0.3-0.5-0.5-1-0.7-1.6c-0.1-0.3-0.2-0.7-0.3-1.2c-0.1-0.4-0.1-0.8-0.1-1.2c0-0.2,0-0.5,0-0.7c0-0.3,0-0.5,0.1-0.8
		c0.1-0.5,0.2-0.9,0.4-1.6c0.2-0.5,0.5-1.3,1-2c0.3-0.5,0.7-0.9,1.1-1.3c0.2-0.2,0.3-0.3,0.5-0.5c0.1-0.1,0.3-0.3,0.4-0.3l0.9-0.6
		L19.9,127.4z"/>
	<path class="st0" d="M39,102.3h123.9c0.2,0,0.3,0.1,0.3,0.3v0.8c0,0.2-0.1,0.3-0.3,0.3H39c-0.2,0-0.3-0.1-0.3-0.3v-0.8
		C38.7,102.4,38.9,102.3,39,102.3"/>
	<path class="st3" d="M39,102.3h123.9c0.2,0,0.3,0.1,0.3,0.3v0.8c0,0.2-0.1,0.3-0.3,0.3H39c-0.2,0-0.3-0.1-0.3-0.3v-0.8
		C38.7,102.4,38.9,102.3,39,102.3z"/>
	<path class="st0" d="M35.5,106.8H159c0.3,0,0.5,0.2,0.5,0.5v0.5c0,0.3-0.2,0.5-0.5,0.5H35.5c-0.3,0-0.5-0.2-0.5-0.5v-0.5
		C35.1,107,35.3,106.8,35.5,106.8"/>
	<path class="st3" d="M35.5,106.8H159c0.3,0,0.5,0.2,0.5,0.5v0.5c0,0.3-0.2,0.5-0.5,0.5H35.5c-0.3,0-0.5-0.2-0.5-0.5v-0.5
		C35.1,107,35.3,106.8,35.5,106.8z"/>
	<path class="st0" d="M35.5,111.6H159c0.3,0,0.5,0.2,0.5,0.5v0.5c0,0.3-0.2,0.5-0.5,0.5H35.5c-0.3,0-0.5-0.2-0.5-0.5V112
		C35.1,111.8,35.3,111.6,35.5,111.6"/>
	<path class="st3" d="M35.5,111.6H159c0.3,0,0.5,0.2,0.5,0.5v0.5c0,0.3-0.2,0.5-0.5,0.5H35.5c-0.3,0-0.5-0.2-0.5-0.5V112
		C35.1,111.8,35.3,111.6,35.5,111.6z"/>
	<path class="st0" d="M39.1,116.6h123.6c0.2,0,0.4,0.2,0.4,0.4v0.6c0,0.2-0.2,0.4-0.4,0.4H39.1c-0.2,0-0.4-0.2-0.4-0.4V117
		C38.7,116.8,38.9,116.6,39.1,116.6"/>
	<path class="st3" d="M39.1,116.6h123.6c0.2,0,0.4,0.2,0.4,0.4v0.6c0,0.2-0.2,0.4-0.4,0.4H39.1c-0.2,0-0.4-0.2-0.4-0.4V117
		C38.7,116.8,38.9,116.6,39.1,116.6z"/>
	<path class="st4" d="M37.5,102.8c-3.5,0.6-6.1,3.8-6.1,7.4c-0.1,3.7,2.4,6.9,5.9,7.6"/>
	<path class="st4" d="M37.3,102.9c-4.5,0.6-7.7,3.6-7.7,7.4c-0.1,3.8,3.2,6.9,7.6,7.6"/>
	<path class="st0" d="M34.8,103.5l0.2-0.1l0.8-0.3l0.6-0.1l0,0l-0.3,0.1l-0.7,0.3l-0.5,0.3l-0.5,0.4l-0.5,0.4l-0.4,0.4l-0.2,0.3
		l-0.4,0.5l-0.2,0.3l-0.3,0.4l-0.2,0.4l-0.2,0.5l-0.1,0.3l-0.2,0.5l-0.1,0.4l-0.1,0.6l-0.1,0.5l0,0.6l0,0.5l0,0.5l0.1,0.5l0.1,0.5
		l0.1,0.4l0.2,0.5l0.2,0.5l0.3,0.5l0.3,0.5l0.3,0.4l0.8,0.9l0.4,0.3l0.5,0.4L35,117l0.4,0.2l0.7,0.3l0,0.1l-0.6-0.2l-0.6-0.2
		l-1.1-0.5c-0.2-0.1-0.4-0.2-0.5-0.3c-0.4-0.3-0.7-0.4-1-0.7c-0.2-0.2-0.4-0.3-0.7-0.7l-0.1-0.1l-0.5-0.6c-0.1-0.2-0.2-0.3-0.4-0.5
		c-0.2-0.4-0.4-0.8-0.6-1.3c-0.1-0.2-0.2-0.6-0.3-1c-0.1-0.3-0.1-0.6-0.1-0.9c0-0.2,0-0.4,0-0.6c0-0.2,0-0.4,0.1-0.7
		c0.1-0.4,0.2-0.8,0.4-1.3c0.2-0.4,0.5-1.1,0.9-1.7c0.3-0.4,0.7-0.8,1-1.1c0.2-0.1,0.3-0.3,0.4-0.4c0.1-0.1,0.3-0.2,0.4-0.3l0.8-0.5
		L34.8,103.5z"/>
	<path class="st4" d="M34.8,103.5l0.2-0.1l0.8-0.3l0.6-0.1l0,0l-0.3,0.1l-0.7,0.3l-0.5,0.3l-0.5,0.4l-0.5,0.4l-0.4,0.4l-0.2,0.3
		l-0.4,0.5l-0.2,0.3l-0.3,0.4l-0.2,0.4l-0.2,0.5l-0.1,0.3l-0.2,0.5l-0.1,0.4l-0.1,0.6l-0.1,0.5l0,0.6l0,0.5l0,0.5l0.1,0.5l0.1,0.5
		l0.1,0.4l0.2,0.5l0.2,0.5l0.3,0.5l0.3,0.5l0.3,0.4l0.8,0.9l0.4,0.3l0.5,0.4L35,117l0.4,0.2l0.7,0.3l0,0.1l-0.6-0.2l-0.6-0.2
		l-1.1-0.5c-0.2-0.1-0.4-0.2-0.5-0.3c-0.4-0.3-0.7-0.4-1-0.7c-0.2-0.2-0.4-0.3-0.7-0.7l-0.1-0.1l-0.5-0.6c-0.1-0.2-0.2-0.3-0.4-0.5
		c-0.2-0.4-0.4-0.8-0.6-1.3c-0.1-0.2-0.2-0.6-0.3-1c-0.1-0.3-0.1-0.6-0.1-0.9c0-0.2,0-0.4,0-0.6c0-0.2,0-0.4,0.1-0.7
		c0.1-0.4,0.2-0.8,0.4-1.3c0.2-0.4,0.5-1.1,0.9-1.7c0.3-0.4,0.7-0.8,1-1.1c0.2-0.1,0.3-0.3,0.4-0.4c0.1-0.1,0.3-0.2,0.4-0.3l0.8-0.5
		L34.8,103.5z"/>
	<path class="st0" d="M12.5,152.5h178.7c0.2,0,0.4,0.2,0.4,0.4v1.1c0,0.2-0.2,0.4-0.4,0.4H12.5c-0.2,0-0.4-0.2-0.4-0.4v-1.1
		C12.1,152.6,12.2,152.5,12.5,152.5"/>
	<path class="st3" d="M12.5,152.5h178.7c0.2,0,0.4,0.2,0.4,0.4v1.1c0,0.2-0.2,0.4-0.4,0.4H12.5c-0.2,0-0.4-0.2-0.4-0.4v-1.1
		C12.1,152.6,12.2,152.5,12.5,152.5z"/>
	<path class="st0" d="M7.4,158.4h178.3c0.3,0,0.6,0.3,0.6,0.6v0.6c0,0.3-0.3,0.6-0.6,0.6H7.4c-0.3,0-0.6-0.3-0.6-0.6V159
		C6.8,158.7,7,158.4,7.4,158.4"/>
	<path class="st3" d="M7.4,158.4h178.3c0.3,0,0.6,0.3,0.6,0.6v0.6c0,0.3-0.3,0.6-0.6,0.6H7.4c-0.3,0-0.6-0.3-0.6-0.6V159
		C6.8,158.7,7,158.4,7.4,158.4z"/>
	<path class="st0" d="M7.4,164.9h178.3c0.3,0,0.6,0.3,0.6,0.6v0.6c0,0.3-0.3,0.6-0.6,0.6H7.4c-0.3,0-0.6-0.3-0.6-0.6v-0.6
		C6.8,165.2,7,164.9,7.4,164.9"/>
	<path class="st3" d="M7.4,164.9h178.3c0.3,0,0.6,0.3,0.6,0.6v0.6c0,0.3-0.3,0.6-0.6,0.6H7.4c-0.3,0-0.6-0.3-0.6-0.6v-0.6
		C6.8,165.2,7,164.9,7.4,164.9z"/>
	<path class="st0" d="M12.6,171.8H191c0.3,0,0.5,0.2,0.5,0.5v0.8c0,0.3-0.2,0.5-0.5,0.5H12.6c-0.3,0-0.5-0.2-0.5-0.5v-0.8
		C12.1,172,12.3,171.8,12.6,171.8"/>
	<path class="st3" d="M12.6,171.8H191c0.3,0,0.5,0.2,0.5,0.5v0.8c0,0.3-0.2,0.5-0.5,0.5H12.6c-0.3,0-0.5-0.2-0.5-0.5v-0.8
		C12.1,172,12.3,171.8,12.6,171.8z"/>
	<path class="st4" d="M10.4,153.1c-4.4,0.9-7.7,5.1-7.7,10.1c-0.1,5,3.1,9.3,7.5,10.3"/>
	<path class="st4" d="M10.2,153.1c-5.6,0.9-9.7,4.9-9.8,10.1c-0.1,5.1,4,9.3,9.6,10.3"/>
	<path class="st0" d="M7,154l0.3-0.1l1-0.4l0.7-0.1l0,0.1l-0.4,0.1L7.8,154l-0.6,0.4l-0.7,0.5l-0.6,0.6l-0.5,0.5l-0.3,0.4l-0.5,0.6
		l-0.3,0.5L3.9,158l-0.3,0.6l-0.3,0.7l-0.2,0.5L3,160.4l-0.1,0.5l-0.1,0.8l-0.1,0.7l0,0.8l0,0.7l0,0.6l0.1,0.6l0.1,0.7l0.1,0.5
		l0.2,0.7l0.3,0.7l0.3,0.7l0.4,0.7l0.4,0.6l1,1.3l0.5,0.5l0.6,0.5l0.6,0.4l0.5,0.3l0.9,0.4l-0.1,0.1l-0.8-0.2l-0.7-0.3l-1.4-0.7
		c-0.2-0.2-0.5-0.3-0.7-0.4c-0.5-0.4-0.8-0.6-1.2-0.9c-0.3-0.3-0.5-0.5-0.9-0.9l-0.2-0.2l-0.7-0.9c-0.2-0.2-0.3-0.5-0.4-0.7
		c-0.3-0.6-0.6-1.1-0.8-1.7c-0.1-0.3-0.2-0.8-0.3-1.3c-0.1-0.4-0.1-0.9-0.1-1.3c0-0.3,0-0.5,0-0.8c0-0.3,0-0.6,0.1-0.9
		c0.1-0.5,0.2-1,0.4-1.8c0.2-0.6,0.6-1.5,1.2-2.3c0.4-0.5,0.8-1,1.2-1.5c0.2-0.2,0.4-0.4,0.6-0.5c0.2-0.2,0.3-0.3,0.5-0.4l1-0.7
		L7,154z"/>
	<path class="st4" d="M7,154l0.3-0.1l1-0.4l0.7-0.1l0,0.1l-0.4,0.1L7.8,154l-0.6,0.4l-0.7,0.5l-0.6,0.6l-0.5,0.5l-0.3,0.4l-0.5,0.6
		l-0.3,0.5L3.9,158l-0.3,0.6l-0.3,0.7l-0.2,0.5L3,160.4l-0.1,0.5l-0.1,0.8l-0.1,0.7l0,0.8l0,0.7l0,0.6l0.1,0.6l0.1,0.7l0.1,0.5
		l0.2,0.7l0.3,0.7l0.3,0.7l0.4,0.7l0.4,0.6l1,1.3l0.5,0.5l0.6,0.5l0.6,0.4l0.5,0.3l0.9,0.4l-0.1,0.1l-0.8-0.2l-0.7-0.3l-1.4-0.7
		c-0.2-0.2-0.5-0.3-0.7-0.4c-0.5-0.4-0.8-0.6-1.2-0.9c-0.3-0.3-0.5-0.5-0.9-0.9l-0.2-0.2l-0.7-0.9c-0.2-0.2-0.3-0.5-0.4-0.7
		c-0.3-0.6-0.6-1.1-0.8-1.7c-0.1-0.3-0.2-0.8-0.3-1.3c-0.1-0.4-0.1-0.9-0.1-1.3c0-0.3,0-0.5,0-0.8c0-0.3,0-0.6,0.1-0.9
		c0.1-0.5,0.2-1,0.4-1.8c0.2-0.6,0.6-1.5,1.2-2.3c0.4-0.5,0.8-1,1.2-1.5c0.2-0.2,0.4-0.4,0.6-0.5c0.2-0.2,0.3-0.3,0.5-0.4l1-0.7
		L7,154z"/>
	<path class="st5" d="M62.6,93c1.6-18.5,2.1-31.5,9.8-48.7C65.3,62.7,65,73.7,63.5,93c0,0.3-0.3,0.6-0.5,0.6
		C62.7,93.6,62.5,93.3,62.6,93"/>
	<path class="st6" d="M62.6,93c1.6-18.5,2.1-31.5,9.8-48.7C65.3,62.7,65,73.7,63.5,93c0,0.3-0.3,0.6-0.5,0.6
		C62.7,93.6,62.5,93.3,62.6,93z"/>
</g>
</svg>
